<svg width="80" height="80" viewBox="0 0 80 80" fill="none" xmlns="http://www.w3.org/2000/svg">
<g id="Frame 7">
<circle id="Ellipse 1" cx="40" cy="40" r="40" fill="#A82F02"/>
<path id="Vector" d="M49.2773 30.2361L47.3545 32.2747C49.3981 34.4469 50.5456 37.3898 50.5455 40.4578C50.5455 46.8482 45.6636 52.0241 39.6364 52.0241C33.6091 52.0241 28.7273 46.8482 28.7273 40.4578C28.7273 34.559 32.8864 29.7012 38.2727 28.9928V31.9133C34.4 32.6072 31.4545 36.1639 31.4545 40.4578C31.4545 45.2434 35.1227 49.1325 39.6364 49.1325C44.15 49.1325 47.8182 45.2434 47.8182 40.4578C47.8182 38.0578 46.9045 35.8892 45.4182 34.3277L43.4955 36.3663C44.4773 37.4217 45.0909 38.8675 45.0909 40.4578C45.0909 43.653 42.65 46.241 39.6364 46.241C36.6227 46.241 34.1818 43.653 34.1818 40.4578C34.1818 37.7687 35.9273 35.5277 38.2727 34.8771V37.9711C37.4545 38.4771 36.9091 39.388 36.9091 40.4578C36.9091 42.0482 38.1364 43.3494 39.6364 43.3494C41.1364 43.3494 42.3636 42.0482 42.3636 40.4578C42.3636 39.388 41.8182 38.4627 41 37.9711V26H39.6364C32.1091 26 26 32.4771 26 40.4578C26 48.4386 32.1091 54.9157 39.6364 54.9157C47.1636 54.9157 53.2727 48.4386 53.2727 40.4578C53.2727 36.4675 51.7455 32.853 49.2773 30.2361Z" fill="white"/>
</g>
</svg>
