<svg width="80" height="80" viewBox="0 0 80 80" fill="none" xmlns="http://www.w3.org/2000/svg">
<g id="Frame 9">
<circle id="Ellipse 3" cx="40" cy="40" r="40" fill="#A82F02"/>
<path id="Vector" d="M54.6619 43.9235L51.5385 41.1232V37.4136C51.5349 34.85 50.4712 32.3787 48.553 30.4775C46.6349 28.5763 43.9986 27.3802 41.1538 27.1207V25H38.8462V27.1207C36.0014 27.3802 33.3651 28.5763 31.447 30.4775C29.5288 32.3787 28.4651 34.85 28.4615 37.4136V41.1232L25.3381 43.9235C25.1217 44.1175 25.0001 44.3805 25 44.6549V47.7583C25 48.0326 25.1216 48.2958 25.338 48.4898C25.5543 48.6838 25.8478 48.7927 26.1538 48.7927H34.2308V49.5965C34.2057 50.9089 34.7216 52.1834 35.6797 53.1758C36.6379 54.1683 37.9708 54.8088 39.4231 54.9747C40.2252 55.046 41.0351 54.966 41.8007 54.7399C42.5663 54.5137 43.2706 54.1464 43.8683 53.6616C44.466 53.1768 44.944 52.5851 45.2714 51.9248C45.5987 51.2644 45.7683 50.5499 45.7692 49.8272V48.7927H53.8462C54.1522 48.7927 54.4457 48.6838 54.662 48.4898C54.8784 48.2958 55 48.0326 55 47.7583V44.6549C54.9999 44.3805 54.8783 44.1175 54.6619 43.9235ZM43.4615 49.8272C43.4615 50.6503 43.0968 51.4396 42.4477 52.0217C41.7985 52.6037 40.9181 52.9306 40 52.9306C39.0819 52.9306 38.2015 52.6037 37.5523 52.0217C36.9032 51.4396 36.5385 50.6503 36.5385 49.8272V48.7927H43.4615V49.8272ZM52.6923 46.7238H27.3077V45.0831L30.4312 42.2828C30.6476 42.0889 30.7692 41.8258 30.7692 41.5515V37.4136C30.7692 35.2187 31.7418 33.1138 33.4729 31.5618C35.204 30.0098 37.5518 29.1379 40 29.1379C42.4482 29.1379 44.796 30.0098 46.5271 31.5618C48.2582 33.1138 49.2308 35.2187 49.2308 37.4136V41.5515C49.2308 41.8258 49.3524 42.0889 49.5688 42.2828L52.6923 45.0831V46.7238Z" fill="white"/>
</g>
</svg>
