<svg width="83" height="83" viewBox="0 0 83 83" fill="none" xmlns="http://www.w3.org/2000/svg">
<g id="Frame 8">
<circle id="Ellipse 2" cx="41.5" cy="41.5" r="41.5" fill="#A82F02"/>
<path id="Vector" d="M53.6667 56.9157L43.5462 46.7952C42.743 47.4378 41.8193 47.9465 40.7751 48.3213C39.7309 48.6961 38.6198 48.8835 37.4418 48.8835C34.5234 48.8835 32.0538 47.8726 30.0329 45.8506C28.012 43.8286 27.0011 41.359 27 38.4418C27 35.5234 28.011 33.0538 30.0329 31.0329C32.0549 29.012 34.5245 28.0011 37.4418 28C40.3601 28 42.8297 29.011 44.8506 31.0329C46.8715 33.0549 47.8825 35.5245 47.8835 38.4418C47.8835 39.6198 47.6961 40.7309 47.3213 41.7751C46.9465 42.8193 46.4378 43.743 45.7952 44.5462L55.9157 54.6667L53.6667 56.9157ZM37.4418 45.6707C39.4498 45.6707 41.1569 44.9676 42.5631 43.5614C43.9692 42.1553 44.6718 40.4487 44.6707 38.4418C44.6707 36.4337 43.9676 34.7266 42.5614 33.3205C41.1553 31.9143 39.4487 31.2118 37.4418 31.2129C35.4337 31.2129 33.7266 31.9159 32.3205 33.3221C30.9143 34.7282 30.2118 36.4348 30.2129 38.4418C30.2129 40.4498 30.9159 42.1569 32.3221 43.5631C33.7282 44.9692 35.4348 45.6718 37.4418 45.6707Z" fill="white"/>
</g>
</svg>
